<svg width="172" height="30" viewBox="0 0 172 30" fill="none" xmlns="http://www.w3.org/2000/svg">
<path d="M150.291 6.89335L147.629 4.25928L144.967 6.89335L147.629 9.52743L150.291 6.89335Z" fill="white"/>
<path d="M42.6786 8.4142H36.7493V5.56891H51.6743V8.4142H45.745V23.6982H42.6786V8.4142Z" fill="white"/>
<path fill-rule="evenodd" clip-rule="evenodd" d="M146.248 10.1012H149.314V13.5912C149.372 13.4581 149.434 13.3272 149.499 13.1983C150.051 12.1072 150.835 11.2553 151.853 10.6426C152.88 10.0299 154.076 9.72354 155.441 9.72354C156.476 9.72354 157.414 9.8998 158.253 10.2523C159.093 10.6048 159.793 11.1084 160.353 11.7631C160.569 12.0084 160.759 12.2712 160.923 12.5515C161.031 12.2491 161.177 11.9653 161.363 11.7001C161.813 11.0707 162.445 10.5838 163.259 10.2397C164.082 9.8956 165.032 9.72354 166.109 9.72354C167.169 9.72354 168.115 9.88721 168.946 10.2145C169.778 10.5419 170.448 11.0119 170.957 11.6246C171.474 12.2289 171.788 12.9339 171.898 13.7397L168.768 14.2936C168.683 13.7145 168.412 13.2571 167.954 12.9214C167.504 12.5856 166.906 12.3968 166.16 12.3548C165.439 12.3212 164.858 12.4345 164.417 12.6947C163.976 12.9465 163.755 13.299 163.755 13.7523C163.755 14.0293 163.844 14.2559 164.022 14.4321C164.209 14.6084 164.561 14.7888 165.078 14.9735C165.596 15.1497 166.406 15.3764 167.509 15.6533C168.62 15.9387 169.498 16.2577 170.142 16.6102C170.796 16.9627 171.266 17.3865 171.555 17.8817C171.852 18.3685 172 18.9687 172 19.6821C172 20.5885 171.771 21.3733 171.313 22.0364C170.863 22.691 170.21 23.1946 169.354 23.5472C168.505 23.8997 167.496 24.0759 166.325 24.0759C164.629 24.0759 163.25 23.6982 162.19 22.9428C161.595 22.5191 161.131 21.999 160.798 21.3826C160.401 22.0144 159.9 22.5429 159.297 22.968C158.236 23.7066 156.939 24.0759 155.403 24.0759C154.021 24.0759 152.82 23.7696 151.802 23.1569C150.793 22.5358 150.021 21.6839 149.487 20.6011C149.426 20.4769 149.368 20.3507 149.314 20.2228V23.6982H143.298V15.4393C143.298 14.5161 143.065 13.7901 142.598 13.2613C142.132 12.7325 141.5 12.4681 140.702 12.4681C140.21 12.4681 139.765 12.5814 139.366 12.808C138.976 13.0347 138.667 13.3662 138.438 13.8026C138.217 14.2307 138.107 14.7385 138.107 15.326V23.6982H135.053V15.4771C135.053 14.537 134.82 13.8026 134.353 13.2739C133.887 12.7367 133.251 12.4681 132.445 12.4681C131.927 12.4681 131.473 12.5898 131.083 12.8332C130.693 13.0682 130.392 13.404 130.18 13.8404C129.968 14.2685 129.862 14.7637 129.862 15.326V23.6982H124.488V21.8727C123.903 22.6365 123.224 23.1946 122.452 23.5472C121.68 23.8997 120.751 24.0759 119.666 24.0759C118.699 24.0759 117.867 23.8955 117.172 23.5346C116.485 23.1653 115.959 22.6701 115.594 22.049C115.59 22.0425 115.587 22.036 115.583 22.0295C115.58 22.0241 115.577 22.0187 115.574 22.0132C115.568 22.0028 115.562 21.9924 115.556 21.982V23.6982H112.452V17.1515C112.452 14.0964 111.383 12.5688 109.245 12.5688C108.321 12.5688 107.553 12.8836 106.942 13.5131C106.332 14.1342 106.026 15.2001 106.026 16.7109V23.6982H102.922V13.1307L96.4434 29.7413H93.5678L95.8326 23.5975L91.778 13.7559C91.7973 14.0437 91.8069 14.3362 91.8069 14.6336C91.8069 16.1947 91.544 17.6215 91.0181 18.9141C90.4921 20.2067 89.7202 21.2684 88.7023 22.0993C87.6929 22.9219 86.4799 23.4213 85.0633 23.5975C84.5034 23.6647 83.7612 23.6982 82.8366 23.6982H77.0952C76.2639 23.8577 75.4877 23.9374 74.7667 23.9374C73.7827 23.9374 72.9218 23.7864 72.1838 23.4842C71.4458 23.1737 70.8944 22.6868 70.5297 22.0238C70.3091 21.6293 70.1649 21.2222 70.0971 20.8026C70.0292 20.3829 69.9953 19.8835 69.9953 19.3044L70.008 18.1461V12.4807H69.207V13.7385L66.0759 14.2936C65.9911 13.7145 65.7197 13.2571 65.2616 12.9214C64.812 12.5856 64.214 12.3968 63.4676 12.3548C62.7465 12.3212 62.1655 12.4345 61.7244 12.6947C61.2833 12.9465 61.0627 13.299 61.0627 13.7523C61.0627 14.0293 61.1518 14.2559 61.3299 14.4321C61.5166 14.6084 61.8686 14.7888 62.386 14.9735C62.9035 15.1497 63.7135 15.3764 64.8163 15.6533C65.9275 15.9387 66.8054 16.2577 67.4501 16.6102C68.1033 16.9627 68.5741 17.3865 68.8625 17.8817C69.1594 18.3685 69.3078 18.9687 69.3078 19.6821C69.3078 20.5885 69.0788 21.3733 68.6207 22.0364C68.1711 22.691 67.518 23.1946 66.6612 23.5472C65.813 23.8997 64.8036 24.0759 63.633 24.0759C61.9365 24.0759 60.558 23.6982 59.4977 22.9428C59.1105 22.667 58.7788 22.3503 58.5024 21.9928C58.4089 22.0941 58.3117 22.1926 58.211 22.2882C57.6003 22.8673 56.8962 23.3121 56.0989 23.6227C55.31 23.9248 54.4744 24.0759 53.5923 24.0759C52.2181 24.0759 51.0008 23.778 49.9405 23.182C48.8802 22.5861 48.0531 21.7552 47.4594 20.6893C46.8741 19.6233 46.5814 18.4105 46.5814 17.0508C46.5814 15.582 46.8656 14.2978 47.4339 13.1983C48.0107 12.0904 48.8166 11.2343 49.8514 10.63C50.8863 10.0257 52.0739 9.72354 53.4141 9.72354C54.7374 9.72354 55.8826 10.0131 56.8496 10.5922C57.4814 10.9706 58.0172 11.4547 58.4571 12.0444C58.5214 11.9264 58.5926 11.8116 58.6707 11.7001C59.1202 11.0707 59.7522 10.5838 60.5665 10.2397C61.3893 9.8956 62.3394 9.72354 63.4167 9.72354C64.477 9.72354 65.4228 9.88721 66.2541 10.2145C66.726 10.4004 67.1461 10.6322 67.5141 10.9101V10.1012H70.008V6.3243H73.0617V10.1012H76.9964V5.56891H82.8366C83.7527 5.56891 84.495 5.60248 85.0633 5.66963C86.4799 5.84588 87.6929 6.34948 88.7023 7.1804C89.6504 7.94651 90.3851 8.92012 90.9063 10.1012H93.466L97.3086 19.8332L101.037 10.1012H105.657V11.612C106.175 11.0077 106.811 10.5419 107.566 10.2145C108.321 9.87882 109.182 9.71095 110.149 9.71095C111.684 9.71095 112.85 10.097 113.648 10.8692C114.445 11.633 114.963 12.4849 115.2 13.4249C115.438 14.365 115.556 15.2589 115.556 16.1066V17.859C115.632 17.7224 115.717 17.5915 115.81 17.4663C116.319 16.7948 117.112 16.2744 118.19 15.9051C118.792 15.7121 119.483 15.5484 120.264 15.4141C121.052 15.2715 122.176 15.091 123.635 14.8728L124.17 14.7972C124.11 14.0083 123.856 13.4291 123.406 13.0598C122.965 12.6905 122.282 12.5059 121.358 12.5059C120.679 12.5059 120.06 12.6612 119.5 12.9717C118.949 13.2823 118.567 13.7607 118.355 14.407L115.556 13.5383C115.904 12.3464 116.565 11.4148 117.541 10.7433C118.516 10.0635 119.789 9.72354 121.358 9.72354C122.63 9.72354 123.72 9.92918 124.628 10.3404C125.544 10.7517 126.218 11.3896 126.651 12.2541C126.694 12.3385 126.733 12.4235 126.77 12.5091V10.1012H129.48V11.5742C129.938 11.0035 130.511 10.5587 131.198 10.2397C131.893 9.92078 132.648 9.76131 133.463 9.76131C134.404 9.76131 135.214 9.95436 135.893 10.3404C136.571 10.7181 137.097 11.2469 137.471 11.9268C137.895 11.2469 138.476 10.7181 139.214 10.3404C139.952 9.95436 140.766 9.76131 141.657 9.76131C142.649 9.76131 143.497 9.96695 144.202 10.3782C144.914 10.7811 145.453 11.3518 145.817 12.0904C146.014 12.4834 146.157 12.914 146.248 13.3823V10.1012ZM158.479 14.883L158.47 14.8854C158.241 14.1635 157.846 13.597 157.286 13.1857C156.735 12.7745 156.107 12.5688 155.403 12.5688C154.25 12.5688 153.38 12.9633 152.795 13.7523C152.218 14.5412 151.925 15.5904 151.917 16.8997C151.925 18.2343 152.227 19.2918 152.82 20.0724C153.414 20.8445 154.275 21.2306 155.403 21.2306C156.201 21.2306 156.837 21.0544 157.312 20.7019C157.767 20.3563 158.117 19.8453 158.361 19.1688V19.0668H163.406V19.3623C163.568 20.0026 163.913 20.5079 164.442 20.8781C165.002 21.2558 165.702 21.4447 166.542 21.4447C167.271 21.4447 167.839 21.302 168.247 21.0166C168.654 20.7228 168.857 20.3242 168.857 19.8206C168.857 19.4932 168.777 19.2414 168.616 19.0652C168.463 18.8889 168.153 18.7169 167.687 18.549C167.22 18.3727 166.444 18.1419 165.358 17.8566C164.196 17.5544 163.276 17.2313 162.597 16.8871C161.927 16.5346 161.444 16.1234 161.147 15.6533C161.004 15.4233 160.896 15.169 160.821 14.8905H158.479V14.883ZM76.9964 21.1697V12.4807H73.0617V18.6875C73.0617 19.1239 73.0787 19.4764 73.1126 19.745C73.1466 20.0136 73.2229 20.236 73.3417 20.4123C73.5368 20.7312 73.8082 20.9578 74.156 21.0921C74.5122 21.2264 74.9491 21.2936 75.4665 21.2936C75.9158 21.2936 76.4257 21.2523 76.9964 21.1697ZM60.6902 19.2777V19.2797L60.6938 19.2792C60.8464 19.9591 61.1985 20.492 61.7498 20.8781C62.3097 21.2558 63.0095 21.4447 63.8493 21.4447C64.5788 21.4447 65.1471 21.302 65.5543 21.0166C65.9614 20.7228 66.165 20.3242 66.165 19.8206C66.165 19.4932 66.0844 19.2414 65.9233 19.0652C65.7706 18.8889 65.461 18.7169 64.9944 18.549C64.5279 18.3727 63.7517 18.1419 62.6659 17.8566C61.5038 17.5544 60.5835 17.2313 59.9049 16.8871C59.8872 16.8779 59.8697 16.8686 59.8524 16.8592C59.8517 17.138 59.839 17.4326 59.8142 17.7432H49.8642C49.9829 18.8679 50.3434 19.7324 50.9457 20.3367C51.5564 20.9327 52.3793 21.2306 53.4141 21.2306C54.1606 21.2306 54.8095 21.067 55.3609 20.7396C55.9122 20.4039 56.3364 19.9213 56.6333 19.2918L56.6344 19.2878L60.6902 19.2777ZM56.7096 15.4519C56.5739 14.3944 56.2473 13.618 55.7299 13.1228C55.2209 12.6276 54.4914 12.38 53.5414 12.38C51.5055 12.38 50.3053 13.404 49.9405 15.4519H56.7096ZM84.8597 20.7019C84.4017 20.7942 83.7273 20.8403 82.8366 20.8403H80.1137V8.42679H82.8366C83.7273 8.42679 84.4017 8.47296 84.8597 8.56528C85.674 8.71636 86.3569 9.08146 86.9082 9.66059C87.4681 10.2397 87.8838 10.9615 88.1552 11.826C88.4266 12.6821 88.5624 13.618 88.5624 14.6336C88.5624 15.624 88.4309 16.5514 88.1679 17.4159C87.905 18.272 87.4936 18.9938 86.9337 19.5814C86.3823 20.1689 85.691 20.5424 84.8597 20.7019ZM118.062 19.9339C118.062 20.4459 118.253 20.8613 118.635 21.1803C119.025 21.4992 119.572 21.6587 120.276 21.6587C120.929 21.6587 121.502 21.5454 121.994 21.3188C122.495 21.0837 122.897 20.7942 123.203 20.4501C123.508 20.1059 123.716 19.7576 123.826 19.4051C124.013 18.9603 124.115 18.2552 124.132 17.29C122.8 17.4998 121.841 17.6593 121.256 17.7684C120.679 17.8691 120.17 17.995 119.729 18.1461C119.178 18.3476 118.762 18.591 118.482 18.8763C118.202 19.1617 118.062 19.5142 118.062 19.9339Z" fill="white"/>
<path d="M8.343 0.258301L8.343 12.9714H5.16471V16.1497H11.5213V3.43658H18.6724V6.61487H21.8507V0.258301H8.343Z" fill="url(#paint0_linear_54_1844)"/>
<path d="M7.54843 23.3009H10.7267V26.4791H17.8778L17.8779 13.766H24.2344V16.9443H21.0561L21.0561 29.6574H7.54843L7.54843 23.3009Z" fill="url(#paint1_linear_54_1844)"/>
<path d="M5.90441e-07 21.3144H12.7131V24.4927H15.8914V18.1362H3.17828L3.17828 10.985H6.35657V7.80673H0L5.90441e-07 21.3144Z" fill="url(#paint2_linear_54_1844)"/>
<path d="M23.0426 22.109V18.9307H26.2208V11.7796H13.5077V5.42301L16.686 5.42301V8.6013H29.3991V22.109H23.0426Z" fill="url(#paint3_linear_54_1844)"/>
<defs>
<linearGradient id="paint0_linear_54_1844" x1="1.59373" y1="-0.344028" x2="27.6919" y2="27.9446" gradientUnits="userSpaceOnUse">
<stop stop-color="#9180FE"/>
<stop offset="0.483938" stop-color="#FE3A74"/>
<stop offset="1" stop-color="#FF6D31"/>
</linearGradient>
<linearGradient id="paint1_linear_54_1844" x1="1.59373" y1="-0.344028" x2="27.6919" y2="27.9446" gradientUnits="userSpaceOnUse">
<stop stop-color="#9180FE"/>
<stop offset="0.483938" stop-color="#FE3A74"/>
<stop offset="1" stop-color="#FF6D31"/>
</linearGradient>
<linearGradient id="paint2_linear_54_1844" x1="1.59373" y1="-0.344028" x2="27.6919" y2="27.9446" gradientUnits="userSpaceOnUse">
<stop stop-color="#9180FE"/>
<stop offset="0.483938" stop-color="#FE3A74"/>
<stop offset="1" stop-color="#FF6D31"/>
</linearGradient>
<linearGradient id="paint3_linear_54_1844" x1="1.59373" y1="-0.344028" x2="27.6919" y2="27.9446" gradientUnits="userSpaceOnUse">
<stop stop-color="#9180FE"/>
<stop offset="0.483938" stop-color="#FE3A74"/>
<stop offset="1" stop-color="#FF6D31"/>
</linearGradient>
</defs>
</svg>
